# xmcd
#
# Track frame offsets:
#	150
#	19662
#	39332
#	61057
#	83200
#
# Disc length: 1362 seconds
#
# Revision: 2
# Processed by: cddbd v1.4b41PL3 Copyright (c) Steve Scherf et al.
# Submitted via: EZCDDA 4.3.2
#
DISCID=2f055005
DTITLE=Celine Dion - Deline Dion - On Tour
DYEAR=1900
DGENRE=
TTITLE0=Falling Into You
TTITLE1=Declaration Of Love
TTITLE2=Think Twice
TTITLE3=Love Can Move Mountians
TTITLE4=Have A Heart
EXTD=
EXTT0=
EXTT1=
EXTT2=
EXTT3=
EXTT4=
PLAYORDER=
